# xmcd
#
# Track frame offsets:
#	150
#	10351
#	27602
#	49728
#	66280
#	79181
#	98982
#	110414
#	127890
#	142216
#	162064
#	181032
#	195892
#	222818
#	250194
#	270946
#	275597
#	319777
#
# Disc length: 4415 seconds
#
# Revision: 0
# Processed by: cddbd v1.5.2PL0 Copyright (c) Steve Scherf et al.
# Submitted via: audiograbber 1.83.01
#
DISCID=f9113d12
DTITLE=Watermelon Slim - Up Close And Personal
DYEAR=2004
DGENRE=Blues
TTITLE0=Truck Holler #1
TTITLE1=Blue Freightliner
TTITLE2=The Last Blues
TTITLE3=I Don't Care No More
TTITLE4=Stud Poker
TTITLE5=Smokestack Lightning
TTITLE6=Cynical Old Bastard
TTITLE7=Two Trains Running
TTITLE8=Bridgebuilder
TTITLE9=Too Old Is Getting Younger All The Time
TTITLE10=Highway 61
TTITLE11=Scalemaster Blues
TTITLE12=Archetypal Blues
TTITLE13=Got My Will Made Out
TTITLE14=Mean Streets
TTITLE15=Truck Holler #1
TTITLE16=The Whaler's Battle Cry
TTITLE17=Trashy Trashmen
EXTD=www.watermelonslim.com
EXTT0=
EXTT1=
EXTT2=
EXTT3=
EXTT4=
EXTT5=
EXTT6=
EXTT7=
EXTT8=
EXTT9=
EXTT10=
EXTT11=
EXTT12=
EXTT13=
EXTT14=
EXTT15=
EXTT16=Bonus track 1
EXTT17=Bonus track 2
PLAYORDER=
